# xmcd
#
# Track frame offsets:
#	300
#	13199
#	25677
#	44320
#	55399
#	68678
#	80587
#	94499
#	104795
#	114917
#	125704
#
# Disc length: 1844 seconds
#
# Revision: 0
# Processed by: cddbd v1.5.1PL2 Copyright (c) Steve Scherf et al.
# Submitted via: dBpowerAMP V4.0
#
DISCID=9907300b
DTITLE=New Riders Of The Purple Sage - The Adventures Of Panama Red
DYEAR=1973
DGENRE=Country
TTITLE0=Panama Red
TTITLE1=It's Alright With Me
TTITLE2=Lonesome L.A. Cowboy
TTITLE3=Important Exportin Man
TTITLE4=One Too Many Stories
TTITLE5=Kick In The Head
TTITLE6=You Should Have Seen Me Running
TTITLE7=Teardrops In My Eyes
TTITLE8=L.A. Lady
TTITLE9=Thank The Day
TTITLE10=Cement, Clay and Glass
EXTD=
EXTT0=
EXTT1=
EXTT2=
EXTT3=
EXTT4=
EXTT5=
EXTT6=
EXTT7=
EXTT8=
EXTT9=
EXTT10=
PLAYORDER=
